<svg xmlns="http://www.w3.org/2000/svg" width="110" height="31.876" viewBox="0 0 110 31.876">
  <path id="a0b64436550946b" d="M76.033,23.357a8.763,8.763,0,0,1-12.594,0,10.894,10.894,0,0,1-2.48-7.394,10.712,10.712,0,0,1,2.507-7.3,8.673,8.673,0,0,1,12.539,0,10.7,10.7,0,0,1,2.507,7.3,10.894,10.894,0,0,1-2.479,7.394Zm-22.14-7.394c0,.136.006.27.01.4-2.53-2.3-6.188-3.16-8.423-3.607-4.135-.872-7.294-1.67-7.294-4.614,0-2.077,1.86-3.588,5.433-3.329a5.033,5.033,0,0,1,5.017,4.159c.054.316.2.546.56.549l5.872.05c.028,0,.052,0,.077-.005a16.126,16.126,0,0,0-1.252,6.393Zm-9.987,10.8c-2.84,0-5.969-1.009-6.69-4.913-.061-.373-.237-.527-.523-.535l-5.677-.076V11.206c.746,2.941,3.217,4.977,8.561,6.18,3.577.856,9.782,1.4,9.782,5.072,0,2.56-1.885,4.367-5.453,4.307ZM15.63,26.03c-4.58,0-8.776-3.6-8.776-10.063C6.854,10.9,10,5.99,15.66,5.99c2.452,0,8.669.84,8.669,9.977,0,9.161-6.491,10.063-8.7,10.063ZM85.409,13.5c1.3,1.738,3.655,3.025,7.476,3.885,3.576.856,9.782,1.4,9.782,5.072,0,2.56-1.886,4.367-5.453,4.307-2.839,0-5.97-1.009-6.69-4.913-.06-.373-.236-.527-.523-.535l-5.26-.07a16.4,16.4,0,0,0,.838-5.284,18,18,0,0,0-.17-2.462ZM96.826,31.876c6.3,0,13.723-2.345,13.142-9.951-.642-6.752-7.668-8.462-11.18-9.164-4.136-.872-7.295-1.67-7.295-4.614,0-2.077,1.86-3.588,5.434-3.329a5.033,5.033,0,0,1,5.017,4.159c.054.316.2.546.56.549l5.872.05c.447,0,.586-.229.53-.547C107.756,1.991,101.876,0,96.465,0S84.552,1.518,84.09,8.239c-.016.26-.022.516-.022.767a15.976,15.976,0,0,0-3.7-4.884A15.857,15.857,0,0,0,69.731,0H69.6a15.187,15.187,0,0,0-5.574,1.053A16.476,16.476,0,0,0,55.54,8.719C54.268,1.936,48.486,0,43.156,0,38.2,0,32.3,1.283,31.016,6.7V1.323A.52.52,0,0,0,30.5.8h-5.53a.52.52,0,0,0-.519.52v1.45c0,.244-.163.329-.362.187A14.433,14.433,0,0,0,15.706,0,15.23,15.23,0,0,0,10.12,1.031,16.2,16.2,0,0,0,5.208,4.126,15.836,15.836,0,0,0,1.3,9.452,16.078,16.078,0,0,0,0,15.966,16.128,16.128,0,0,0,1.152,22.1,15.746,15.746,0,0,0,4.61,27.236a15.727,15.727,0,0,0,5.085,3.48,15.631,15.631,0,0,0,6.04,1.156,13.363,13.363,0,0,0,8.345-3.026c.2-.154.367-.071.367.181V30.55a.522.522,0,0,0,.52.52H30.5a.521.521,0,0,0,.519-.52V25.42c2.607,6.13,9.25,6.455,12.5,6.455,5.436,0,11.7-1.75,12.949-7.118A16.7,16.7,0,0,0,58.5,27.232a15.732,15.732,0,0,0,11.237,4.635h.18A15.34,15.34,0,0,0,75.9,30.676a15.684,15.684,0,0,0,5.07-3.444,16.215,16.215,0,0,0,2.746-3.644c1.971,7.9,9.563,8.287,13.112,8.287Z" fill="#344d4c" fill-rule="evenodd"/>
</svg>
