<svg xmlns="http://www.w3.org/2000/svg" width="154.17" height="48.266" viewBox="0 0 154.17 48.266">
  <g id="endpoint-logo-horizontal-light" transform="translate(-86 -90.8)">
    <g id="Group_16" data-name="Group 16" transform="translate(141.446 106.919)">
      <g id="Group_15" data-name="Group 15" transform="translate(0 0)">
        <path id="Path_131" data-name="Path 131" d="M1047.4,386.587V371.8h9.372v2.78h-6.13v3.034h5.554v2.734h-5.554v3.46h6.28v2.78Z" transform="translate(-1047.4 -371.713)" fill="#344d4c"/>
        <path id="Path_132" data-name="Path 132" d="M1276.8,386.587l-4.643-8.507v8.507H1269.1V371.8h2.959l4.631,8.524V371.8h3.057v14.781H1276.8Z" transform="translate(-1256.314 -371.713)" fill="#344d4c"/>
        <path id="Path_133" data-name="Path 133" d="M1519.9,386.587V371.8h7.319a3,3,0,0,1,3.328,3.328v8.12a3,3,0,0,1-3.328,3.328H1519.9Zm3.247-2.826h3.627a.471.471,0,0,0,.531-.531v-8.08a.471.471,0,0,0-.531-.531h-3.627Z" transform="translate(-1492.65 -371.713)" fill="#344d4c"/>
        <path id="Path_134" data-name="Path 134" d="M1778.734,381.178H1774.3v5.41h-2.1V371.8h6.534a2.819,2.819,0,0,1,3.12,3.12v3.137a2.819,2.819,0,0,1-3.12,3.12Zm-.173-7.549H1774.3v5.7h4.262a1.052,1.052,0,0,0,1.188-1.188v-3.31A1.059,1.059,0,0,0,1778.561,373.628Z" transform="translate(-1730.399 -371.713)" fill="#344d4c"/>
        <path id="Path_135" data-name="Path 135" d="M2005.261,385.254h-3.841a2.819,2.819,0,0,1-3.12-3.12V373.42a2.819,2.819,0,0,1,3.12-3.12h3.841a2.819,2.819,0,0,1,3.12,3.12v8.714a2.819,2.819,0,0,1-3.12,3.12Zm-4.856-11.938v8.864c0,.836.4,1.251,1.188,1.251h3.478a1.061,1.061,0,0,0,1.211-1.188v-8.928a1.061,1.061,0,0,0-1.211-1.188h-3.478A1.049,1.049,0,0,0,2000.405,373.316Z" transform="translate(-1943.459 -370.3)" fill="#344d4c"/>
        <path id="Path_136" data-name="Path 136" d="M2245.5,386.587V371.8h2.1v14.781h-2.1Z" transform="translate(-2176.403 -371.713)" fill="#344d4c"/>
        <path id="Path_137" data-name="Path 137" d="M2366.96,386.587l-6.211-10.923v10.923H2358.8V371.8h2l6.142,10.883V371.8h1.932v14.781h-1.915Z" transform="translate(-2283.168 -371.713)" fill="#344d4c"/>
        <path id="Path_138" data-name="Path 138" d="M2599.1,373.722h-3.841v12.959h-2.1V373.722H2589.3V371.9h9.8Z" transform="translate(-2500.375 -371.808)" fill="#344d4c"/>
      </g>
    </g>
    <g id="Group_17" data-name="Group 17" transform="translate(86 90.8)">
      <path id="Path_139" data-name="Path 139" d="M543.108,221.159l-16.4-7.659v14.874l5.387,3.847v-9.839l5.565,2.641v11.039l-5.767,2.682-5.19-3.708v12.578l16.408-7.6Z" transform="translate(-501.284 -206.424)" fill="#344d4c"/>
      <path id="Path_140" data-name="Path 140" d="M188.8,239.135l16.523,7.688V232.064l-5.387-3.853v9.533l-5.565-2.59-.006-3.4,2.809-2.042-2.809-2.047v-3.489l5.617-2.584,5.34,3.818V212.6L188.8,220.253Z" transform="translate(-182.871 -205.575)" fill="#344d4c"/>
      <path id="Path_141" data-name="Path 141" d="M109.882,94.076l20.906,9.752V126.1l-20.912,9.695-20.912-9.724v-22.3l20.918-9.695m.006-3.276L86,101.867v26.1l23.876,11.1L133.753,128V101.931L109.888,90.8Z" transform="translate(-86 -90.8)" fill="#344d4c"/>
    </g>
  </g>
</svg>
