<svg xmlns="http://www.w3.org/2000/svg" width="135.041" height="52.143" viewBox="0 0 135.041 52.143">
  <g id="flytro-logo" transform="translate(-0.014 -0.024)">
    <path id="Path_21" data-name="Path 21" d="M3.785,9.938,19.883.469A3.442,3.442,0,0,1,24.5,1.653v.118a3.587,3.587,0,0,1-1.184,4.735l-16.1,9.469A3.442,3.442,0,0,1,2.6,14.792v-.118A3.527,3.527,0,0,1,3.785,9.938ZM6.508,21.065,32.785,5.677A3.442,3.442,0,0,1,37.4,6.861v.118a3.587,3.587,0,0,1-1.184,4.735L9.94,27.1a3.442,3.442,0,0,1-4.616-1.184V25.8a3.527,3.527,0,0,1,1.184-4.735Zm-4.853,14.8,16.1-9.469a3.442,3.442,0,0,1,4.616,1.184v.118a3.587,3.587,0,0,1-1.184,4.735L5.087,41.9A3.442,3.442,0,0,1,.471,40.714V40.6a3.551,3.551,0,0,1,1.184-4.735Zm4.853,9.825,5.8-3.433a3.442,3.442,0,0,1,4.616,1.184v.118A3.587,3.587,0,0,1,15.74,48.29l-5.8,3.433a3.442,3.442,0,0,1-4.616-1.184V50.42a3.551,3.551,0,0,1,1.184-4.735Z" transform="translate(0 0)" fill="#344d4c" fill-rule="evenodd"/>
    <path id="Path_22" data-name="Path 22" d="M40.8,33.927V11.2H55.359v4.735H45.771v4.735h8.4v4.616h-8.4v8.523H40.8Z" transform="translate(7.492 2.053)" fill="#344d4c"/>
    <path id="Path_23" data-name="Path 23" d="M55.9,34V10.8h4.853V33.882H55.9Z" transform="translate(10.265 1.979)" fill="#344d4c"/>
    <path id="Path_24" data-name="Path 24" d="M64.959,38.916l3.669-8.286L62,16.9h5.445l3.906,8.523L74.9,16.9h5.09L70.167,38.916Z" transform="translate(11.386 3.1)" fill="#344d4c"/>
    <path id="Path_25" data-name="Path 25" d="M85.776,17.616h3.078v4.261H85.776V27.8c0,1.3.71,1.657,1.776,1.657.473,0,.947-.118,1.3-.118v4.025a5.2,5.2,0,0,1-2.486.473c-3.314,0-5.327-1.894-5.327-5.09V22H78.2V17.735h.829a2.334,2.334,0,0,0,2.486-2.6V13h4.38v4.616Z" transform="translate(14.361 2.383)" fill="#344d4c"/>
    <path id="Path_26" data-name="Path 26" d="M100.061,21.773a7.281,7.281,0,0,0-1.539-.118c-1.894,0-3.669,1.184-3.669,4.261V32.9H90V16.92h4.735V19.05A4.465,4.465,0,0,1,98.878,16.8c.473,0,.947.118,1.3.118v4.853Z" transform="translate(16.529 3.08)" fill="#344d4c"/>
    <path id="Path_27" data-name="Path 27" d="M116.708,24.9a8.4,8.4,0,1,1-8.4-8.4A8.4,8.4,0,0,1,116.708,24.9Zm-4.853,0A3.517,3.517,0,0,0,108.3,21a3.583,3.583,0,0,0-3.551,3.906A3.583,3.583,0,0,0,108.3,28.81C110.2,28.929,111.855,27.627,111.855,24.9Z" transform="translate(18.347 3.026)" fill="#344d4c"/>
  </g>
</svg>
