<svg xmlns="http://www.w3.org/2000/svg" width="71.547" height="47.199" viewBox="0 0 71.547 47.199">
  <g id="layer1" transform="translate(-4407.728 -585.975)">
    <g id="g45263" transform="translate(4407.728 585.975)">
      <path id="path45125" d="M4749.679,579.484c2.6-1.276,3.887-1.109,3.916.185a47.009,47.009,0,0,1-.393,5.533c-.964,8.789-2.575,15.971-2.7,25,4.244-10.989,7.8-18.626,12.387-28.033,1.456-3,2.385-2.437,3.581-2.968,4.655-2.073,4.828-.8,4.222,1.733-2.258,9.39-8.039,38.957-8.922,43.509-.254,1.317-1.687.759-2.056.244-1.657-2.293-3.528-2.329-3.321-3.853,1.04-7.59,4.782-26.634,5.758-31.122-4.973,10.194-10.129,22.938-12.78,30.164-.56,1.534-1.583,1.422-2.217.3-.9-1.577-2.634-2.382-2.923-4.246-.906-5.925,1.04-17.219,1.311-24.364-2.708,7.805-7.253,22.958-9.246,29.8-.82,2.833-3.557,2.371-2.83-.39,3.026-11.49,9.546-31.811,12.364-39.116.665-1.721,2.4-1.663,3.847-2.374" transform="translate(-4699.398 -578.053)" fill="#344d4c"/>
      <path id="path45127" d="M4430.873,577.134c-.878-.214-3.425,1.161-4.99,1.432a1.824,1.824,0,0,0-1.138.988c-2.506,5.758-4.753,11.246-6.7,16.247-2.489.425-5.4.985-8.657,1.716,2.333-5.985,4.689-11.888,6.988-17.564,1.132-2.8-1.848-3.061-3-.231-1.5,3.679-4.314,10.571-7.427,18.605-2.287.561-4.712,1.2-7.248,1.934-1.842.532-1.917,1.023-1.121,2.128.439.615,1.346.553,1.762.992,1.074,1.136,1.727,2.495,3.65,2.7-1.715,4.588-3.431,9.32-4.984,13.876-.976,2.86,1.8,3.445,2.871.419,1.721-4.878,3.534-9.815,5.4-14.738,1.554-.361,5.313-1.171,8.784-1.924-2.755,7.55-4.568,13.285-5.255,16.076a1.3,1.3,0,0,0,.2,1.054c.93,1.353,1.813,1.409,3.009,3.082a1.007,1.007,0,0,0,1.779-.421c2.552-7.71,5.18-14.945,7.629-21.43a6.032,6.032,0,0,0,3.967-2.336c1.992-2.967,2.564-2.365,3.043-3.268.6-1.133.2-2.2-1.923-1.933,0,0-.8.057-2.287.226,2.356-6.067,4.418-11.212,5.9-15.134.508-1.328.572-2.3-.254-2.495" transform="translate(-4397.098 -577.112)" fill="#344d4c"/>
      <path id="path45129" d="M4647.344,855.859c.549,1.387,2.264.967,1.611-.707-.665-1.7-2.316-6.837-2.749-8.491-.589-2.228,1.963-1.619.67-.162-1.109,1.253-1.848,1.754-3.9,4.136-1.98,2.3-1.443,5.283.676,5.942,2.391.744,4.5-1.891,5.8-3.824,1.265-1.872.041-2.97-1.235-1.863a23.986,23.986,0,0,1-2.726,2.393c-.78.474-1.392-.035-.352-1.466,1.207-1.657,2.558-3.045,3.563-4.611,2.05-3.191-2-5.03-3.748-2.957a3.071,3.071,0,0,0-.445,3.12c.41,1.491,1.935,6.251,2.83,8.49" transform="translate(-4617.045 -816.488)" fill="#344d4c"/>
    </g>
  </g>
</svg>
