<svg id="Assets" xmlns="http://www.w3.org/2000/svg" width="143.491" height="49.787" viewBox="0 0 143.491 49.787">
  <path id="Path_1" data-name="Path 1" d="M129.81,0c-8.62,0-15.446,2.3-17.457,11.71l-.862,4.165h12.572l.862-4.1c.36-1.795,1.292-3.449,3.3-3.449a1.967,1.967,0,0,1,2.011,2.657l-.789,3.449c-.43,1.941-1.795,2.371-3.519,2.947-2.73.932-5.53,1.795-8.334,2.73-5.674,1.941-8.907,3.663-10.2,9.769l-.436,2.046c-.958-2.956-3.09-4.442-6.316-5.279,4.525-1.292,7.688-4.525,7.688-9.483,0-10.129-13.743-10.129-21.072-10.129H64.66L67.839.932H55.053l-5.6,13.288-2.73,7.039h-.073l.216-7.039L46.789.932H33.857l.579,6.106H23.347L12.932,20.257V7.039H0v35.7H12.932V29.81L23.42,42.742h12.3l-1.282,6.106H46.862l2.8-13L59.7,16.572V42.745H75.142V31.468H85.413c4.022,0,6.176.576,6.682,4.884l.43,3.449a13.563,13.563,0,0,0,.719,2.947h11.8c.073,4.191,2.329,7.039,8.242,7.039,4.1,0,7.4-1.292,9.912-4.525a34.852,34.852,0,0,0-.576,3.593h12.932c.43-3.593,1.079-6.969,1.795-10.488l5.674-26.437C145.255,1.651,139.292,0,129.81,0ZM24.712,24.282,34.879,11.707l2.285,24.142-.649,3.09-11.8-14.653Zm63.145-2.154H75.142v-5.6H87.857c2.011,0,4.6.216,4.6,2.8s-2.657,2.8-4.6,2.8Zm36.852,15.013c-.36,1.795-1.651,3.809-3.593,3.809s-2.084-1.795-1.795-3.233l2.084-9.483a2.3,2.3,0,0,1,1.508-1.941l4.6-2.154-2.8,13Z" fill="#344d4c"/>
</svg>
