<svg xmlns="http://www.w3.org/2000/svg" width="203.473" height="16.079" viewBox="0 0 203.473 16.079">
  <g id="layer1" transform="translate(25.753 -502.668)">
    <path id="path380" d="M103.537,514.358c0-4.5-8.111-5.053-8.111-8.247A2.518,2.518,0,0,1,98,503.743a4.388,4.388,0,0,1,4.252,3.909.128.128,0,0,0,.116.137.15.15,0,0,0,.138-.137v-4.689a.131.131,0,0,0-.138-.117c-.094,0-.094.073-.116.143a1.019,1.019,0,0,1-.988.577,2.475,2.475,0,0,1-1.031-.256,6.294,6.294,0,0,0-2.139-.463,4.284,4.284,0,0,0-4.434,4.074c0,4.709,7.9,4.917,7.9,8.453,0,1.674-1.447,2.479-2.94,2.479a4.522,4.522,0,0,1-4.55-4.228.128.128,0,0,0-.117-.14.133.133,0,0,0-.137.14v5.009a.13.13,0,0,0,.137.114c.093,0,.093-.07.117-.134a1.011,1.011,0,0,1,.918-.648,5.442,5.442,0,0,1,1.38.324,7.959,7.959,0,0,0,2.48.458,4.422,4.422,0,0,0,4.686-4.389m21.412,3.931a.129.129,0,0,0-.137-.137c-1.724-.046-1.837-.667-1.837-2.506v-9.694c0-1.838.113-2.459,1.837-2.507a.131.131,0,0,0,.137-.137.129.129,0,0,0-.137-.112h-5.971a.107.107,0,0,0-.114.112c0,.091.044.137.114.137,1.721.048,1.858.669,1.858,2.507v4.3h-7.1v-4.3c0-1.838.115-2.459,1.837-2.507a.134.134,0,0,0,.139-.137.132.132,0,0,0-.139-.112h-5.976a.11.11,0,0,0-.115.112c0,.091.048.137.115.137,1.726.048,1.861.669,1.861,2.507v9.694c0,1.839-.135,2.46-1.861,2.506-.067,0-.115.042-.115.137a.11.11,0,0,0,.115.113h5.976a.134.134,0,0,0,.139-.136.127.127,0,0,0-.139-.113c-1.722-.046-1.837-.667-1.837-2.506v-4.573h7.1v4.573c0,1.839-.137,2.46-1.858,2.506-.07,0-.114.042-.114.137a.108.108,0,0,0,.114.113h5.971a.132.132,0,0,0,.137-.136Zm17.874-3.652c.069-.23-.138-.3-.232-.048-.941,2.363-2.573,2.915-3.673,2.915h-2.964c-1.2,0-1.378-.251-1.378-1.12V505.952c0-1.838.139-2.459,1.86-2.507.068,0,.116-.046.116-.137a.11.11,0,0,0-.116-.112h-5.927a.13.13,0,0,0-.136.135.126.126,0,0,0,.136.113c1.724.048,1.794.669,1.794,2.507v9.694c0,1.839-.023,2.434-1.77,2.506a.125.125,0,1,0,0,.25h10.842c.276,0,.325-.083.37-.25l1.078-3.515Zm16.334-.094c.022-.071-.044-.113-.116-.113s-.09.042-.137.113c-.829,1.635-2.02,3.055-3.929,3.055h-3.49c-1.149,0-1.175-.575-1.175-1.214v-5.425h3.38c1.814,0,2.459.277,2.5,2.022a.111.111,0,0,0,.116.119.135.135,0,0,0,.139-.14v-4.874a.13.13,0,0,0-.139-.112.108.108,0,0,0-.116.112c-.042,1.723-.688,2.025-2.5,2.025h-3.38v-6.089h4.782c1.814,0,2.43.848,2.756,2.41.026.071.07.137.139.137a.127.127,0,0,0,.114-.137l-.114-3.236H146.174a.109.109,0,0,0-.114.112c0,.091.047.137.114.137,1.728.048,1.865.669,1.865,2.507v9.694c0,1.839-.137,2.46-1.865,2.506-.067,0-.114.042-.114.137a.109.109,0,0,0,.114.113h11.761l1.221-3.859Zm18.564-11.234a.108.108,0,0,0-.114-.112h-5.08c-.07,0-.111.047-.111.135a.1.1,0,0,0,.111.113c1.174.026,1.448.55,1.448,1.011a3.146,3.146,0,0,1-.6,1.679l-3.055,4.823-3.285-5.055a3.188,3.188,0,0,1-.621-1.42c0-.624.643-1.012,1.655-1.038a.135.135,0,0,0,.14-.137c0-.065-.073-.112-.14-.112h-6.249c-.068,0-.112.047-.112.135,0,.067.044.094.112.113,1.492.325,1.953,1.332,2.759,2.571l3.974,6.021v3.61c0,1.839-.231,2.46-1.956,2.506-.065,0-.111.042-.111.137a.108.108,0,0,0,.111.113h6.158a.133.133,0,0,0,.138-.136.126.126,0,0,0-.138-.113c-1.722-.046-1.93-.667-1.93-2.506v-3.769l3.445-5.464c.943-1.475,1.842-2.761,3.335-2.968.069,0,.114-.046.114-.137M89.411,518.289c0-.1-.046-.137-.113-.137a2.332,2.332,0,0,1-1.453-.667,4.343,4.343,0,0,1-.893-1.405l-5.834-13.235c-.115-.226-.3-.246-.393,0l-5.7,12.827c-.663,1.536-1.306,2.452-2.412,2.48a.125.125,0,1,0,0,.25h4.849a.133.133,0,0,0,.137-.136.126.126,0,0,0-.137-.113c-1.171-.028-1.723-.394-1.723-1.157a3.173,3.173,0,0,1,.389-1.323l1.128-2.6h5.928l.892,2.139a5.176,5.176,0,0,1,.577,1.811c0,.647-.53,1.1-1.539,1.13a.126.126,0,1,0,0,.25H89.3a.134.134,0,0,0,.138-.136l-.024.023Zm-6.594-6.042H77.625l2.621-5.907Zm-96.119,2.39c.071-.23-.137-.3-.25-.049-.919,2.363-2.574,2.915-3.654,2.915H-20.17c-1.219,0-1.38-.251-1.38-1.12V505.952c0-1.838.117-2.459,1.863-2.507.066,0,.113-.046.113-.136,0-.065-.047-.112-.138-.112h-5.926c-.067,0-.114.047-.114.136,0,.067.047.113.136.113,1.724.048,1.8.669,1.8,2.507v9.694c0,1.839-.05,2.434-1.8,2.506-.067,0-.112.042-.112.137,0,.066.045.113.136.113h10.845c.276,0,.321-.084.366-.25l1.079-3.515Zm36.736-11.305a.134.134,0,0,0-.141-.136H18.241c-.069,0-.114.047-.114.136a.107.107,0,0,0,.114.113c1.723.048,2.043.669,2.043,2.507v5.811c0,1.24.023,3.059-.757,4.251a4.71,4.71,0,0,1-4,1.745,3.574,3.574,0,0,1-3.562-2.2,13.662,13.662,0,0,1-.366-3.374v-6.228c-.023-1.838.342-2.459,2.068-2.507a.109.109,0,0,0,.115-.113c0-.088-.047-.136-.115-.136H7.423a.132.132,0,0,0-.139.136.128.128,0,0,0,.139.113c1.722.048,1.974.669,1.974,2.507v7.008c0,3.008,1.148,5.788,6.019,5.788a7.271,7.271,0,0,0,2.983-.6c2.276-1.01,2.875-3.15,2.875-5.263v-6.937c0-1.838.3-2.459,2.018-2.507a.131.131,0,0,0,.141-.113m19.412,14.957c0-.095-.045-.137-.115-.137a4.844,4.844,0,0,1-3.035-1.844c-1.1-1.331-3.216-4.153-4.017-5.256,2-.417,3.835-1.7,3.835-3.905,0-1.332-.806-3.951-5.283-3.951H27.889a.108.108,0,0,0-.112.112c0,.09.045.136.112.136,1.728.048,1.862.669,1.862,2.507v9.694c0,1.839-.134,2.46-1.862,2.506-.067,0-.112.042-.112.137a.108.108,0,0,0,.112.113h5.974a.134.134,0,0,0,.14-.136.128.128,0,0,0-.14-.113c-1.725-.046-1.841-.667-1.841-2.506V511.3H33.2l5.331,7.1h4.2c.07,0,.115-.047.115-.136ZM37.01,507.237c0,2.549-2.3,3.329-4.479,3.329h-.51v-6.433a11.943,11.943,0,0,1,1.888-.111,3.035,3.035,0,0,1,3.1,3.215M5.447,518.289a.121.121,0,0,0-.138-.137,2.457,2.457,0,0,1-1.45-.667,4.4,4.4,0,0,1-.871-1.4l-5.836-13.235c-.117-.226-.3-.247-.413,0l-5.675,12.827c-.691,1.536-1.332,2.452-2.435,2.479-.071,0-.116.042-.116.137a.108.108,0,0,0,.116.113H-6.5c.069,0,.118-.047.118-.136a.108.108,0,0,0-.118-.113c-1.169-.028-1.719-.394-1.719-1.157a3.087,3.087,0,0,1,.365-1.322l1.128-2.6H-.8l.894,2.139a4.822,4.822,0,0,1,.575,1.811c0,.647-.505,1.1-1.54,1.13-.067,0-.112.042-.112.137a.108.108,0,0,0,.112.113H5.309a.123.123,0,0,0,.138-.136Zm-6.6-6.042H-6.362l2.618-5.906ZM62,518.289a.127.127,0,0,0-.135-.137,2.366,2.366,0,0,1-1.446-.667,4.3,4.3,0,0,1-.876-1.4l-5.857-13.235c-.095-.226-.275-.247-.39,0l-5.675,12.827c-.689,1.536-1.334,2.452-2.436,2.479-.07,0-.117.042-.117.137a.109.109,0,0,0,.117.113H50.06c.068,0,.113-.047.113-.136a.105.105,0,0,0-.113-.113c-1.169-.028-1.725-.394-1.725-1.157a3.173,3.173,0,0,1,.365-1.322l1.13-2.6h5.926l.9,2.139a4.81,4.81,0,0,1,.574,1.811c0,.647-.527,1.1-1.539,1.13-.068,0-.115.042-.115.137a.109.109,0,0,0,.115.113h6.181a.13.13,0,0,0,.135-.136v.023Zm-6.59-6.042H50.2l2.616-5.906Z" fill="#344d4c"/>
  </g>
</svg>
