<svg xmlns="http://www.w3.org/2000/svg" width="105.372" height="37.554" viewBox="0 0 105.372 37.554">
  <path id="cdf78f4eb16a484" d="M149.233,399.68a12.876,12.876,0,0,1-7.717-2.579,15.412,15.412,0,0,1-1.6-1.6,10.018,10.018,0,0,1-1.738-3.127c-1.137-3.4-.552-7.871,1.673-12.774,1.9-4.2,4.844-8.36,9.972-14.125.755-.848,3-3.329,3.019-3.329s-.117.212-.271.471a30.221,30.221,0,0,0-3.1,7.141c-1,3.654-.878,6.79.353,9.222a9.008,9.008,0,0,0,3.941,3.928c2.865,1.4,7.059,1.52,12.182.34.353-.082,17.828-4.721,38.835-10.309s38.2-10.158,38.2-10.154-48.8,20.891-74.143,31.727c-4.013,1.716-5.086,2.149-6.972,2.811A35.353,35.353,0,0,1,149.233,399.68Z" transform="translate(-137.61 -362.141)" fill="#344d4c"/>
</svg>
