<svg xmlns="http://www.w3.org/2000/svg" width="173.551" height="58.487" viewBox="0 0 173.551 58.487">
  <g id="Ninjas_in_Pyjamas" data-name="Ninjas in Pyjamas" transform="translate(-12 -29)">
    <path id="Path_21" data-name="Path 21" d="M80.395,44.592a5.079,5.079,0,0,1-4.686,3.3h-.694L73.8,52.229h.694c4.339,0,9.025-3.645,10.24-7.983L87.511,34.7H78.659l-1.041,3.471H82.3Z" transform="translate(45.454 4.192)" fill="#344d4c"/>
    <path id="Path_22" data-name="Path 22" d="M72.695,57.066a5.079,5.079,0,0,1-4.686,3.3h-.694L66.1,64.7h.694c4.339,0,9.025-3.645,10.24-7.983L79.811,47H70.959l-1.041,3.471H74.6Z" transform="translate(39.791 13.239)" fill="#344d4c"/>
    <path id="Path_23" data-name="Path 23" d="M113.69,45.9l.694-2.6h-13.19l-.694,2.6Z" transform="translate(65.092 10.518)" fill="#344d4c"/>
    <path id="Path_24" data-name="Path 24" d="M104.25,47.1l3.645-12.5h-2.95L101.3,47.1Z" transform="translate(65.681 4.119)" fill="#344d4c"/>
    <path id="Path_25" data-name="Path 25" d="M107.745,34.6,104.1,47.1h2.95l2.083-7.289,1.909,2.083L109.48,47.1h2.95l3.645-12.322h-2.95l-1.215,4.339Z" transform="translate(67.74 4.119)" fill="#344d4c"/>
    <path id="Path_26" data-name="Path 26" d="M69.761,34.7H65.6L63.86,40.948,58.133,34.7,53.1,52.4h4.165l2.95-10.24,2.6,2.777L60.563,52.4h4.165Z" transform="translate(30.229 4.192)" fill="#344d4c"/>
    <path id="Path_27" data-name="Path 27" d="M70.6,34.7H66.433L61.4,52.229h4.165Z" transform="translate(36.334 4.192)" fill="#344d4c"/>
    <path id="Path_28" data-name="Path 28" d="M82.261,34.7H78.1L76.36,40.948,70.633,34.7,65.6,52.4h4.165l2.95-10.24,2.6,2.777L73.063,52.4h4.165Z" transform="translate(39.423 4.192)" fill="#344d4c"/>
    <path id="Path_29" data-name="Path 29" d="M87.836,52.229H92L97.208,34.7h-11.8S80.547,51.187,80.2,52.229h4.165l1.388-4.686h3.3Zm-1.041-8.157L88.53,38H92l-1.736,6.074Z" transform="translate(50.162 4.192)" fill="#344d4c"/>
    <path id="Path_30" data-name="Path 30" d="M96.93,38.345h3.818l-.521,1.909,2.95,2.95,2.43-8.5H93.98l-1.562,5.554L98.145,46.5l-.521,2.083H93.807l.521-2.083-3.3-2.95L88.6,52.229h11.8l1.736-6.074L96.41,39.907Z" transform="translate(56.34 4.192)" fill="#344d4c"/>
    <path id="Path_31" data-name="Path 31" d="M110.383,50.645H114.2l-.521,1.909,2.95,2.95,2.43-8.5H107.433l-1.562,5.554L111.6,58.8l-.521,2.083h-3.818l.521-2.083-2.95-2.95-2.43,8.678h11.8l1.736-6.074-5.727-6.248Z" transform="translate(66.49 13.239)" fill="#344d4c"/>
    <path id="Path_32" data-name="Path 32" d="M80.336,64.529H84.5L89.708,47h-11.8S73.047,63.487,72.7,64.529h4.165l1.388-4.686h3.3Zm-.868-7.983L81.2,50.471h3.3l-1.736,6.074Z" transform="translate(44.645 13.239)" fill="#344d4c"/>
    <path id="Path_33" data-name="Path 33" d="M101.61,64.529h4.165L110.808,47h-11.8S94.147,63.487,93.8,64.529h4.165l1.388-4.686h3.3Zm-1.041-7.983,1.736-6.074h3.3l-1.736,6.074Z" transform="translate(60.165 13.239)" fill="#344d4c"/>
    <path id="Path_34" data-name="Path 34" d="M69.875,47.074c-.347,1.388-2.083,7.116-2.083,7.116a4.164,4.164,0,0,1-2.95-5.38l.521-1.909H61.371l-.521,1.909c-1.215,4.686,1.215,8.5,5.554,9.2a4.81,4.81,0,0,1-3.992,2.256h-3.3L57.9,64.6h3.3c4.339,0,9.025-3.645,10.24-7.983v-.174l2.777-9.372Z" transform="translate(33.76 13.166)" fill="#344d4c"/>
    <path id="Path_35" data-name="Path 35" d="M54.433,47,49.4,64.529h4.165L54.954,59.5A13.594,13.594,0,0,0,65.02,50.471l.174-.521L66.061,47Zm1.562,8.33L57.383,50.3h3.645a8.059,8.059,0,0,1-5.033,5.033Z" transform="translate(27.508 13.239)" fill="#344d4c"/>
    <path id="Path_36" data-name="Path 36" d="M88.763,53.248l3.818-1.909-3.818,13.19h4.165l3.3-11.281,3.818-1.909L96.4,64.529h4.165L105.771,47h-4.165l-3.992,1.909L98.134,47H93.969l-3.992,1.909L90.5,47H86.333L81.3,64.529h4.165Z" transform="translate(50.971 13.239)" fill="#344d4c"/>
    <path id="Path_37" data-name="Path 37" d="M22.871,42.071,19.4,49.534l13.711-8.678L28.425,38.6Z" transform="translate(5.443 7.061)" fill="#344d4c"/>
    <path id="Path_38" data-name="Path 38" d="M51.939,59.749a5.767,5.767,0,0,1-7.116,1.736H44.65c.347-.694,3.471-7.463,3.471-7.463l-8.157,5.207L28.683,54.021,35.1,49.856,30.419,47.6l-8.5,5.38L20.7,55.236l40.437,18.57Z" transform="translate(6.399 13.68)" fill="#344d4c"/>
    <path id="Path_39" data-name="Path 39" d="M39.877,47.214c-.174.521-2.777,5.9-2.777,5.9l6.768-4.339L52.2,30.9,38.141,40.1a5.718,5.718,0,0,1,1.735,7.116Z" transform="translate(18.461 1.397)" fill="#344d4c"/>
    <path id="Path_40" data-name="Path 40" d="M24.5,55.96,29.529,45.2l-6.942,4.339L12,72.447l14.058-9.2C23.975,61.167,23.281,58.563,24.5,55.96Z" transform="translate(0 11.915)" fill="#344d4c"/>
    <path id="Path_41" data-name="Path 41" d="M28.7,56.249,33.386,58.5,44.32,51.563,47.791,44.1S30.262,55.207,28.7,56.249Z" transform="translate(12.283 11.106)" fill="#344d4c"/>
    <path id="Path_42" data-name="Path 42" d="M29.074,35.019a15.19,15.19,0,0,1,2.777-.347,22.2,22.2,0,0,1,14.4,3.992l3.818-2.6A26.417,26.417,0,0,0,31.5,30.333,27.61,27.61,0,0,0,23,32.242Z" transform="translate(8.091 0.923)" fill="#344d4c"/>
    <path id="Path_43" data-name="Path 43" d="M43.345,45.974a13.489,13.489,0,0,1,.347,2.777,22.2,22.2,0,0,1-3.992,14.4l2.6,3.818A26.729,26.729,0,0,0,48.03,48.4a28.787,28.787,0,0,0-1.909-8.5Z" transform="translate(20.374 8.017)" fill="#344d4c"/>
    <path id="Path_44" data-name="Path 44" d="M18.017,57.2a15.19,15.19,0,0,1-.347-2.777,22.952,22.952,0,0,1,3.992-14.4l-2.6-3.818a26.729,26.729,0,0,0-5.727,18.57,28.787,28.787,0,0,0,1.909,8.5Z" transform="translate(0.925 5.296)" fill="#344d4c"/>
    <path id="Path_45" data-name="Path 45" d="M40.3,60.245a15.19,15.19,0,0,1-2.777.347,22.647,22.647,0,0,1-14.4-3.992L19.3,59.2A26.729,26.729,0,0,0,37.87,64.93a27.61,27.61,0,0,0,8.5-1.909Z" transform="translate(5.369 20.3)" fill="#344d4c"/>
    <path id="Path_46" data-name="Path 46" d="M54.337,47.57,13.9,29l9.2,14.058a5.767,5.767,0,0,1,7.116-1.736l10.239,4.686L38.371,50.52l-5.9,3.818L29,61.628l5.727-3.645,7.983,3.645,7.116-4.512Zm-7.983,6.595-3.992,2.6-3.3-1.562,2.777-1.736,2.6-5.727,3.992,1.909Z" transform="translate(1.397 0)" fill="#344d4c"/>
  </g>
</svg>
