<svg xmlns="http://www.w3.org/2000/svg" xmlns:xlink="http://www.w3.org/1999/xlink" width="157.57" height="31.876" viewBox="0 0 157.57 31.876">
  <defs>
    <linearGradient id="linear-gradient" x1="6.878" y1="-4.834" x2="75.149" y2="-53.25" gradientUnits="objectBoundingBox">
      <stop offset="0" stop-color="#52bce8"/>
      <stop offset="0.137" stop-color="#50b6e3"/>
      <stop offset="0.324" stop-color="#4aa4d3"/>
      <stop offset="0.538" stop-color="#3f88ba"/>
      <stop offset="0.772" stop-color="#316097"/>
      <stop offset="1" stop-color="#21336e"/>
    </linearGradient>
  </defs>
  <g id="f2d7346a3a574c9" transform="translate(-0.108 -0.14)" style="isolation: isolate">
    <path id="Path_1" data-name="Path 1" d="M47.729,7.393l-.206.1C46.8,8,46.63,8.652,46.7,8.705l1.345-.766a35.258,35.258,0,0,1,5.575-1.878,17.79,17.79,0,0,0-5.888,1.332m11.835-.32a15.874,15.874,0,0,0-4.829-.226,24.5,24.5,0,0,0-6.447,1.292l-2,.713-.48.513,1.465-.133,1.585-.606a19.644,19.644,0,0,1,2.011-.573c3.676-.879,9.484-.759,8.7-.979M71.64,14.6a17.581,17.581,0,0,0-.713-3.656l-.24-.679a17.164,17.164,0,0,0-1.852-3.5c-.972-1.285-2.018-2.724-6.254-3.956,4.029.979,4.329,1.479,4.855,1.832l-.619-.6C63.754,1.778,58.939.706,54.176,1.6c2.97-.966,7.852-.846,10.9,1.046A15.438,15.438,0,0,0,57.214.18c-.353-.02-.759-.04-1.219-.04a19.382,19.382,0,0,0-11.636,4.4c-.226.2-.42.386-.586.559-.793.926-.266,1.559.113,1.772.133.073-.027,1.432.093,1.512.413.273,1.865-1.425,2.524-1.718A24,24,0,0,1,60.69,5.089c5.215,1.465,7.46,3.93,7.593,4.123s1.012,1.066.992,1.425a.18.18,0,0,1-.193.02,4.263,4.263,0,0,1-.413-.393.267.267,0,0,1-.073-.047,12.215,12.215,0,0,0-2.951-1.931,37.357,37.357,0,0,0-5-1.292c1.8.713,3.69.932,5.375,1.892a12.649,12.649,0,0,1,3.477,3.17,8.843,8.843,0,0,1,1.772,6.234,1.283,1.283,0,0,1,.007.16l.007.033V18.5a11.8,11.8,0,0,1-.226,1.359c-.06.253-.147.533-.24.866l.02-.02a15.052,15.052,0,0,0,.806-6.1M63.581,6.707l.173.007c.067-.12-.839-.466-1.172-.546a12.584,12.584,0,0,0-1.4-.34c.013,0-.153.06.833.38.246.08.073.333,1.559.5" transform="translate(-14.445)" fill="#344d4c"/>
    <path id="Path_2" data-name="Path 2" d="M80.8,21.563c-.113-.053-.226-.093-.333-.133l.333.133" transform="translate(-26.838 -7.11)" fill="#232e66"/>
    <path id="Path_3" data-name="Path 3" d="M72.41,20.342a8.843,8.843,0,0,0-1.772-6.234,12.649,12.649,0,0,0-3.477-3.17c-1.685-.959-3.577-1.179-5.375-1.892a36.756,36.756,0,0,1,5,1.292,12.2,12.2,0,0,1,2.957,1.931l.067.047c.133.14.273.266.42.4a.186.186,0,0,0,.193-.027c.02-.36-.846-1.239-.986-1.425s-2.071-3.13-7.293-4.6A24.369,24.369,0,0,0,47.647,8.713c-.666.34-1,1.6-.813,1.752.153.133.826-.213,1.832-.919l.2-.1A17.847,17.847,0,0,1,54.76,8.114a35.484,35.484,0,0,0-5.575,1.878l-.8.333-.446.44,1.492-.573A24.5,24.5,0,0,1,55.879,8.9a15.874,15.874,0,0,1,4.829.226c.786.22-5.022.1-8.7.979A19.644,19.644,0,0,0,50,10.678l-2.311.666c.24.246,1.5,1.838,1.852,2.291l.626.36c.067.073.6.266.653.346L51.55,14c.12.153-.666.533-.566.666.16.186.633-.666,1.439-1.172a20.38,20.38,0,0,1,10.09-2.424,4.67,4.67,0,0,1,.906.147c.26.133-1.912.233-1.385.393a5.686,5.686,0,0,0,1.8-.2.3.3,0,0,0,.133-.027.32.32,0,0,1,.153-.02,10.562,10.562,0,0,1,1.379.067c1.245.3.08.46-.353.36a3.217,3.217,0,0,0-.646.013c-.16.04-.48.073-.633.113-.233.053-.679.113-.906.153-.133.02-1.6-.02-1.372.173a8.594,8.594,0,0,1,1.3.153,3.561,3.561,0,0,0,.533.013,1.816,1.816,0,0,1,.38-.02.312.312,0,0,0,.186-.06.5.5,0,0,1,.28-.053c.08,0,.213.04.186.1-.233.559-.633.5-1.359.446a8.03,8.03,0,0,0-1.265-.02c-.846.067-1.738.446-1.892.313-.107-.087.986-.513.686-.573-.493-.08-4.329,1.285-4.536,1.818h.02c-.033.08.013.1.087.127a9.775,9.775,0,0,0,1.206-.266c.24.013.313-.113.546-.113.18,0,.819-.32,1-.32.333,0,.466.167.806.093.273-.067.619-.027.886-.12.266-.073.526-.18.786-.246a1.528,1.528,0,0,0,.186-.06l.266-.047c.067,0,.513.186.486.24.6.346.759.626,1.265.653h.206l.353-.067.46-.08a3.2,3.2,0,0,1,.666,0,4.3,4.3,0,0,1,.586.093c.233.033-.04.186-.127.233a5.2,5.2,0,0,1-.872.433,1.308,1.308,0,0,1-.593.133,1.1,1.1,0,0,0-.326.047,1,1,0,0,1-.213.06l-.2-.007a2.357,2.357,0,0,0-.286,0l-.113.033-.093-.007a.512.512,0,0,0-.2.02.373.373,0,0,1-.153.053h-.08a.44.44,0,0,0-.213.02,1.292,1.292,0,0,1-.573.08c-.013.013-1.365.093-1.379.107a2.827,2.827,0,0,1-.333.12c-.233.113-.48.213-.726.306a1.278,1.278,0,0,1-.147.02l-.473.133-.206.16a.9.9,0,0,1-.306.133c-.087.013-.167.047-.253.06a.4.4,0,0,0-.18.113c-.06.04-.133.027-.193.06-.12.067-1.778.619-1.9.686l-.16.067a1.641,1.641,0,0,0-.226.147.366.366,0,0,0-.033.266h0v.033a.921.921,0,0,0,.446.013.494.494,0,0,0,.167-.033,1.312,1.312,0,0,1,.226-.027,1.425,1.425,0,0,0,.466-.186c1.792-.4,4.769-1.638,7.726-1.838a13.421,13.421,0,0,1,5.188.826c.613.286,3.483,1.892,2.331,6.474v.04h-.007l.087-.233.007-.033-.013.013c.093-.32.18-.606.24-.866a13.106,13.106,0,0,0,.226-1.352V20.5a1.293,1.293,0,0,1-.013-.16M62.333,7.881a12.84,12.84,0,0,1,1.392.34c.333.087,1.239.426,1.172.546l-.18-.007c-1.485-.167-1.312-.42-1.559-.5-.986-.32-.819-.38-.826-.38m-1.019,6.427.133-.067a5.451,5.451,0,0,0-1.665.306,3.578,3.578,0,0,0-.839.433c-.067.12.087.193.113.2.446.087.473-.06,2.258-.866" transform="translate(-15.588 -2.053)" fill="#344d4c" opacity="0.5"/>
    <path id="Path_4" data-name="Path 4" d="M73.469,28.366a.6.6,0,0,1,.573.027c.546-.693,1.119-.959,1.612-1.705l.466-.733a7.318,7.318,0,0,0,.6-2.025l-.093.16c-.033.033-.226.886-.673.886-.147,0-.506-.067-.46-.24-.333,1.152-1.352,1.665-1.792,2.617C74.141,27.56,73.415,28.033,73.469,28.366Z" transform="translate(-24.499 -7.945)" fill="none" fill-rule="evenodd"/>
    <path id="Path_5" data-name="Path 5" d="M50.8,35.757h.027l.02-.007a.2.2,0,0,0-.04.007Z" transform="translate(-16.93 -11.893)" fill="url(#linear-gradient)"/>
    <path id="Path_7" data-name="Path 7" d="M48.3,32.009a5.433,5.433,0,0,0,.6.353c1.7.906,4.169,1.385,2.97.833-2.518-1.419-.693-.48,1.512.04a16.231,16.231,0,0,0,4.955.426,16.608,16.608,0,0,0,6.087-3.843,5.912,5.912,0,0,1-.773.44c-.033.013-2.538.733.733-1.618a11.8,11.8,0,0,0,4.889-7.113,1.432,1.432,0,0,1,.213-.413l.26.1c-.2.952-.42,1.752-.693,2.684.246-.306.386-.4.626-.7-.566,2.185-1.911,3.65-3.377,5.268-.393.44.573-.027-.266.879.2-.22.153-.1.313-.02.666-.839,1.745-.886,2.351-1.8a15.971,15.971,0,0,0,2.511-5.262l.033.04v-.02a4.962,4.962,0,0,0-1.305-1.006,6.734,6.734,0,0,0-2.191-.653q-.216-.035-.433-.067c-1.059,2.511-1.206,4.256-3.543,5.641-2.6,1.692-.972,1.259-.946,1.245a3.158,3.158,0,0,0,.573-.306,7.373,7.373,0,0,1-4.862,3.1c-.047.153-.773.133-.9.24a.559.559,0,0,1-.433.233c.073.22-.433.3-.579.5-.2.266.173.38-.273.4l-.36-.186a3.676,3.676,0,0,1-2.8-.946L52.12,30.5c-.173.127-.726.12-1.106.28a.46.46,0,0,1-.246-.087c-.16-.08-.34-.16-.413,0-.087.186-.42.013-.559-.013-.08.04-.6.273-.48.293-.6-.1-.393.087-.959.28l-.546.02c-.133.04-.067.386.486.733Zm16.817-5.781c.44-.952,1.459-1.465,1.792-2.617-.047.173.313.24.46.24.446,0,.639-.853.666-.886l.107-.16a7.706,7.706,0,0,1-.606,2.031l-.466.726c-.493.746-1.066,1.012-1.612,1.705a.6.6,0,0,0-.573-.027c-.053-.333.666-.8.233-1.012Z" transform="translate(-15.912 -6.82)" fill="#bbd3d3"/>
    <path id="Path_9" data-name="Path 9" d="M70.826,25.686l-.007-.08-.02-.24v-.073q-.018-.12-.04-.24l-.007-.06q-.023-.134-.053-.266l-.033-.14-.033-.12q-.035-.124-.073-.246l-.067-.16q-.043-.118-.093-.233a.049.049,0,0,0-.013-.04l-.087-.18a4.709,4.709,0,0,0-.739-1.066A16.11,16.11,0,0,1,67.05,27.8c-.606.912-1.685.959-2.351,1.8-.16-.08-.113-.2-.32.02.846-.906-.12-.44.273-.879,1.465-1.618,2.811-3.084,3.377-5.268-.24.3-.38.393-.626.7.273-.932.486-1.732.693-2.684l-.26-.1a1.432,1.432,0,0,0-.213.413,11.829,11.829,0,0,1-4.889,7.113c-3.27,2.344-.766,1.632-.733,1.618a4.915,4.915,0,0,0,.773-.44,16.466,16.466,0,0,1-6.087,3.843c-4.422,1.705-9.97,2.171-13.867-1a17.819,17.819,0,0,0,2.8,2.3c-.586-.1-1-.553-1.559-.733.013.027,1.345,1.765,5.342,2.225l.8.08a13.733,13.733,0,0,0,6.127-.466q1.69-.449,3.384-.886c.173.067-1.226.792-3.144,1.332a15.591,15.591,0,0,1-3.543.6,9.738,9.738,0,0,1-1.465-.053h-.047c-.666-.087-1.305-.12-1.951-.253a7.923,7.923,0,0,0-2.1-.266s.246.133,2.511.946c-.14.053-.813.14-3.6-1.052A21.565,21.565,0,0,0,51.6,38.494a16.024,16.024,0,0,0,4.263-.147,22.263,22.263,0,0,0,8.152-3.463c.872-.546,1.732-1.126,2.578-1.692l-.013.067.18.027c-.033.093-.033.093-.5.653,1.012-.819,1.532-2.1,2.617-2.871a2.583,2.583,0,0,1-.306.566l-.1.147a14.713,14.713,0,0,1-1.885,2.231l-.067.067-.213.186a18.382,18.382,0,0,1-8.392,4.416,5.694,5.694,0,0,0,.866-.173c-.513.147-.533.16-.746.233l.833-.16a9.166,9.166,0,0,1-2.018.533,17.842,17.842,0,0,0,10.01-5.049c.113-.113.786-.839,1.006-1.106a13.394,13.394,0,0,0,2.418-4.023,7.7,7.7,0,0,0,.286-.966,2.129,2.129,0,0,0,.067-.28c.107-.613.113-.613.16-.972V26.7q.033-.342.033-.686v-.067l-.007-.266Z" transform="translate(-14.264 -7.097)" fill="#344d4c"/>
    <path id="Path_10" data-name="Path 10" d="M41.783,24.8a2.584,2.584,0,0,1-.932-.992c-.087-.133-.16-.286-.233-.426l-.093-.16a4.069,4.069,0,0,0-.513-.746l-.186-.2-.16-.18a.626.626,0,0,1-.093-.147,20.391,20.391,0,0,1-1.319-5.395c-.153-1.086-.813-1.958-1.885-3.264l-.446-.559-.333-.44a11.045,11.045,0,0,0-.866-.986l-1.032-.872-1.146-.966q-.821-.68-1.705-1.279a4.462,4.462,0,0,0-2.531-.813,3.51,3.51,0,0,0-1.792.446,10.04,10.04,0,0,1-1.971,1.106c-.466.2-.952.353-1.565.553l-.633.213a4.046,4.046,0,0,0-1.539.966l-.24.233q-.12.12-.246.233a1.268,1.268,0,0,1-.366.26,2.338,2.338,0,0,1-.526.08l-.386.02-.28.013a3.284,3.284,0,0,0-1.852.833c-.22.18-.413.36-.613.533l-.087.087a5.752,5.752,0,0,1-.586.48,3.467,3.467,0,0,1-1.692.48,7.516,7.516,0,0,0-.946.133,4.839,4.839,0,0,0-1.159.386,9.747,9.747,0,0,0-1.385.826l-.686.493-.586.426A4.434,4.434,0,0,1,6.71,17.207a1.352,1.352,0,0,1-1.465-1.212,2.123,2.123,0,0,1,.932-1.845l.366-.3c.273-.22.533-.426.759-.626a6.647,6.647,0,0,0,.866-.866,2.4,2.4,0,0,0,.413-2.218A2.348,2.348,0,0,0,6.743,8.515a8.658,8.658,0,0,0-1.1-.233l-.12-.027a2.471,2.471,0,0,1-.293-.047,1.352,1.352,0,0,1-.24-.06A20.12,20.12,0,0,1,2.953,6.917l-.1-.067-.067.1a3.017,3.017,0,0,0,2.085,4.7.233.233,0,0,1,.2.186.228.228,0,0,1-.08.253C3.14,13.55,2.747,14.176,2.654,15.808a3.663,3.663,0,0,0,.972,2.731,4.136,4.136,0,0,0,3.11,1.2,7.273,7.273,0,0,0,1.119-.093.242.242,0,0,1,.246.226,6.426,6.426,0,0,0,.553,2.471.252.252,0,0,1-.04.32,1.108,1.108,0,0,1-.366.206,4.729,4.729,0,0,1-1.585.253c-.373,0-.653.26-.872.806-.073.18-.133.373-.186.553l-.02.053-.087.26a.926.926,0,0,1-.08.186,1.589,1.589,0,0,1-.333.4.246.246,0,0,1-.167.06H4.872a.253.253,0,0,1-.173-.133,1.245,1.245,0,0,0-.853-.613H3.8a2.311,2.311,0,0,0-1.912,1.379.246.246,0,0,1-.2.153l-.047.007a.993.993,0,0,0-.9.659,2.4,2.4,0,0,0-.133.533l-.033.12a3.13,3.13,0,0,1-.087.42,1.145,1.145,0,0,1-.127.313l-.08.147-.067.1a.912.912,0,0,0-.067.7A.611.611,0,0,0,.5,29.6a2.6,2.6,0,0,0,.553.2,4.61,4.61,0,0,0,.859.127.366.366,0,0,0,.16-.047l.113-.08a.253.253,0,0,1,.2-.053l.186.033.533.107h.027l.5.1.2.04.133.007A1.564,1.564,0,0,0,5.285,29.4a2.621,2.621,0,0,0,.173-.266l.087-.147.067-.113c.067-.107.127-.206.2-.306a.229.229,0,0,1,.2-.1l.067.007.253.06.413.047H6.9a2.663,2.663,0,0,0,1.745-.8l.153-.127.2-.173a2.994,2.994,0,0,1,.34-.253,1.033,1.033,0,0,1,.6-.22h.04a21.084,21.084,0,0,1,2.131.246A2.454,2.454,0,0,0,13.07,27a8.8,8.8,0,0,0,.919-.5,1.834,1.834,0,0,1,.253-.133l.027-.007.293-.14a2,2,0,0,0,.679-.533,5.8,5.8,0,0,0,.466-.846l.186-.38.32-.653a.253.253,0,0,1,.226-.133h.067a9.161,9.161,0,0,0,1.139-.113l.466-.067a6.734,6.734,0,0,1,.853-.113c.053,0,.2.007.393.027l.446.027q1,.06,2.011.027a3.73,3.73,0,0,0,1.1-.226.253.253,0,0,1,.173.067c.12.127.253.246.386.366a.238.238,0,0,1,.073.266.246.246,0,0,1-.213.167l-.147.013a.932.932,0,0,0-.593.273.24.24,0,0,1-.2.093.28.28,0,0,1-.093-.013.8.8,0,0,0-.313-.067h-.32a8.057,8.057,0,0,0-1.2.08,1.988,1.988,0,0,0-.666.2.526.526,0,0,0-.306.493A5.321,5.321,0,0,0,20.63,27.35a1.159,1.159,0,0,0,.706.18h.127a.243.243,0,0,1,.22.133,2.5,2.5,0,0,0,1.978,1.512h.047A15.4,15.4,0,0,0,27.57,27.85l.053-.013.133-.027.266-.033.133-.013a2.786,2.786,0,0,0,.853-.2,2.626,2.626,0,0,0,.813-1.052.255.255,0,0,1,.22-.133h.02a.258.258,0,0,1,.22.18,1.351,1.351,0,0,0,.113.286,1.222,1.222,0,0,0,1.186.626h.093a4.261,4.261,0,0,0,1.179-.266l.206-.067a6.007,6.007,0,0,1,.9-.253,2.265,2.265,0,0,1,.533-.027l.353.027.24.013a3.08,3.08,0,0,0,.36.02,1.94,1.94,0,0,0,.846-.167,3.982,3.982,0,0,0,.8-.466l.067-.053a.266.266,0,0,1,.147-.047.246.246,0,0,1,.16.067,4.629,4.629,0,0,0,3.1,1.159h.16a1.028,1.028,0,0,0,.813-.346.548.548,0,0,0,.093-.473.246.246,0,0,1,.2-.313,1.278,1.278,0,0,0,.606-.266.666.666,0,0,0,.226-.453.362.362,0,0,0-.113-.266,3.137,3.137,0,0,0-.759-.486M30.767,22.888c-.167.213-.42.273-.653.686-.466-.186-.546-.8-.633-1.066.373-.067,1.245-.233,1.705-.3a2.232,2.232,0,0,0-.42.679" transform="translate(0 -2.241)" fill="#fff"/>
    <path id="Path_11" data-name="Path 11" d="M42.513,25.577c-.853-.5-1.192-1.439-1.718-2.178-.186-.266-.513-.446-.686-.713a19.859,19.859,0,0,1-1.3-5.228,5.535,5.535,0,0,0-.48-1.4,31.861,31.861,0,0,0-2.731-3.53l-.273-.28-3.377-2.8A6.741,6.741,0,0,0,30.6,8.733a3.417,3.417,0,0,0-2.371.087,15.507,15.507,0,0,1-2.145,1.2c-1.106.5-2.358.6-3.31,1.452-.559.48-1.026,1.232-1.852,1.106a3.53,3.53,0,0,0-2.444.872,4.684,4.684,0,0,1-2.031,1.4c-.713.3-1.578.153-2.3.426a9.755,9.755,0,0,0-3.037,1.9A5.946,5.946,0,0,1,7.96,18.324a2.109,2.109,0,0,1-1.818-1.379,2.3,2.3,0,0,1,.719-2.391c.726-.866,1.878-1.379,2.444-2.378a1.847,1.847,0,0,0-.14-1.878c-.759-.779-1.838-.806-2.817-1.046A8.416,8.416,0,0,1,4.683,8.3a1.751,1.751,0,0,0-.26,1.079A2.584,2.584,0,0,0,6.075,11.4a7.841,7.841,0,0,0,1.578.167.5.5,0,0,1,.3.36.569.569,0,0,1-.167.386,15.844,15.844,0,0,0-2.3,2.131,3.134,3.134,0,0,0-.42,3.084A3.317,3.317,0,0,0,7.733,19.5a5.917,5.917,0,0,0,2.278-.246.266.266,0,0,1,.18.16,14.672,14.672,0,0,0,.12,1.832,10.488,10.488,0,0,0,.513,1.479.646.646,0,0,1-.133.533,6.638,6.638,0,0,1-1.292.726l-1.106.067-.213.1A5.524,5.524,0,0,0,7.4,25.683a4.041,4.041,0,0,1-1.492,1.159,3.53,3.53,0,0,1-.6.773,1.1,1.1,0,0,1-.653.24,3.269,3.269,0,0,0-.566,1.652c.626.06,1.279.4,1.892.06.526-.246.639-.886,1.032-1.272.313-.34.786-.087,1.159-.013.553.027.952-.373,1.419-.559.326-.213.593-.586.932-.8a3.924,3.924,0,0,1,2.251-.013,2.427,2.427,0,0,0,1.578-.153,4.746,4.746,0,0,1,1.345-.733,2.156,2.156,0,0,0,.839-1.132c.147-.386.513-.686.486-1.132-.113-.093-.246-.313-.413-.293-.213.293-.373.606-.613.9-1.026,1.4-1.838,1.532-3.923,1.532a4.855,4.855,0,0,0-4.009,1.632.2.2,0,0,1-.226-.047,1.072,1.072,0,0,1,.173-.579,4.589,4.589,0,0,1,4-1.7,6.034,6.034,0,0,0,2.384-.573A3.617,3.617,0,0,0,16.1,22.779c.18-.892.253-1.865.48-2.717a.338.338,0,0,1,.306-.12.327.327,0,0,1,.266.193,5.169,5.169,0,0,0-.1,2.771c.679.9,1.945.413,2.871.366a16.921,16.921,0,0,1,2.664.047c.46-.013.8.1,1.152-.186a.811.811,0,0,0,.107-.539c-.027-.26-.24-.413,0-.626a.32.32,0,0,1,.34.053,4.323,4.323,0,0,0,.413,1.052,5.448,5.448,0,0,0,1.752,1.365,2.327,2.327,0,0,1,1.132,1.718c.007.373-.333.626-.619.8a2.905,2.905,0,0,1-1.578.38c-.753-.366-.952-1.159-1.452-1.745a1.209,1.209,0,0,0-1.019-.313,5.683,5.683,0,0,0-1.2.186.4.4,0,0,0-.113.346c.26.466.539.919.826,1.385.333.2.786-.113,1.066.24a3.857,3.857,0,0,0,.773,1.1,1.348,1.348,0,0,0,1.365.26,17.5,17.5,0,0,0,3.084-1.2h.333a1.641,1.641,0,0,0,1.112-.32,10.106,10.106,0,0,0,.813-1.365,1.4,1.4,0,0,0,.027-1.179,6.74,6.74,0,0,1-1.012-1.951,2.216,2.216,0,0,0-.726-.2c-.127.06-.306.033-.38.173l1.126,2.218a1.269,1.269,0,0,1,.113.646,2.9,2.9,0,0,1-.779,1.265c-.067.04-.16.08-.213-.013a5.239,5.239,0,0,0,.326-1.565l-1.1-1.978a1.763,1.763,0,0,1-.34-.826.36.36,0,0,1,.24-.3c.48-.153,1.066-.133,1.432-.513A5.44,5.44,0,0,0,30.3,19.3a.339.339,0,0,1,.226-.167.306.306,0,0,1,.226.14,3.69,3.69,0,0,1-.626,2.744.24.24,0,0,0,.047.3,2.065,2.065,0,0,0,1.565-.246,8.561,8.561,0,0,0,1.645-.213.194.194,0,0,1,.12.14,2.717,2.717,0,0,0-.659,1.352c-.426.446-1.032.833-1.079,1.465.073.32.346.02.533.053a.151.151,0,0,1,.133.167l-.42.626c-.226.366.04.8.04,1.146a.772.772,0,0,0,.739.433,6.041,6.041,0,0,0,1.778-.473,3.863,3.863,0,0,1,2.1-.147,2.892,2.892,0,0,0,1.665-.926,1.046,1.046,0,0,1,.693.386,3.656,3.656,0,0,0,2.891,1.146l.093-.053a.167.167,0,0,0-.04-.253l-.666-.346c-.466-.3-1.052-.693-1.212-1.219a6.394,6.394,0,0,0-.679-1.439c-.1-.226-.333-.413-.426-.639a.107.107,0,0,1,.1-.06A3.076,3.076,0,0,1,40.6,24.851a2.439,2.439,0,0,0,2.344,1.225L43.033,26a.14.14,0,0,0,0-.173l-.513-.253ZM31.344,15.56l-.033-.007v.013l-.013.007a.136.136,0,0,1-.186.02L31.1,15.58l-.007-.02a9.177,9.177,0,0,0-.466-1.725l-.133-.226-.053-.067-.113-.167a.533.533,0,0,1-.06-.566l.013-.02a.422.422,0,0,1,.413-.067l.02.013a1.871,1.871,0,0,1,.513.646,3.122,3.122,0,0,1,.22,1.186,3.782,3.782,0,0,1-.133.986Zm5.428,9.378h-.013a2.349,2.349,0,0,1-.886.107h-.02l-.06-.027-.067-.04a.14.14,0,0,1-.047-.16,1.392,1.392,0,0,1,.986-.892h.067l.107.02a.207.207,0,0,1,.153.18,1.182,1.182,0,0,1,.013.22.726.726,0,0,1-.233.6Zm1.738-3.883-.04.12-.04.127a.28.28,0,0,1-.2.2.167.167,0,0,1-.16-.027A.173.173,0,0,1,38,21.328L38,21.2l-.047-.44a1.2,1.2,0,0,0-.186-.493q-.21-.23-.413-.466a.719.719,0,0,0-.466-.253.808.808,0,0,0-.36.253l-.147.186-.133.18a.133.133,0,0,1-.16.033l-.02-.007a.653.653,0,0,1-.053-.266.944.944,0,0,1,.08-.36l.12-.24.133-.273.013-.027a.534.534,0,0,0,.12-.226l.04-.093.073-.2a.373.373,0,0,1,.553-.213,1.06,1.06,0,0,1,.413.426l.067.107.08.133.167.213a2.225,2.225,0,0,1,.686,1.5,1.742,1.742,0,0,1-.047.38Z" transform="translate(-1.33 -2.725)" fill="#3c5656"/>
    <path id="Path_12" data-name="Path 12" d="M3.9,35.575a2.877,2.877,0,0,0,.959-1.159.959.959,0,0,0-.333-.38.36.36,0,0,0-.306.013,8.211,8.211,0,0,1-.979.7c-.147.1-.087.313-.12.466,0,.147.173.246.26.333a.793.793,0,0,0,.526.027m-1.492.04a.974.974,0,0,0-.526.586c-.067.453.027.879-.326,1.212-.013.087-.1.186-.013.266a4.6,4.6,0,0,0,1,.266c.167-.553.293-1.166.493-1.645v-.147c-.173-.206-.34-.48-.626-.533m21.566-1.532c.286.313.266.8.6,1.039a1.455,1.455,0,0,0,1.132-.353c.186-.16-.08-.36-.113-.546-.186-.266-.053-.813-.506-.819a10.469,10.469,0,0,1-1.372.087l-.127.087c-.087.266.313.266.386.506" transform="translate(-0.469 -11.111)" fill="#3c5656"/>
    <g id="Group_1" data-name="Group 1" transform="translate(67.398 5.395)">
      <path id="Path_13" data-name="Path 13" d="M169.967,23.808a2.284,2.284,0,0,0,4.562,0V16.6h3.943v7.979c0,2.7-2.8,4.882-6.234,4.882S166,27.272,166,24.574V16.6h3.97Zm17.457,5.2h4V8.03h-4Zm-6.754,0h4V8.03h-4Zm-73.11-16.577h-2.171V29.01H101.14V9h7.306a5.9,5.9,0,0,1,1.432,11.649l5.874,8.365h-5.009l-4.249-6.554V17.667h.986a2.737,2.737,0,0,0,2.844-2.617,2.664,2.664,0,0,0-2.764-2.617" transform="translate(-101.14 -8.03)" fill="#344d4c" fill-rule="evenodd"/>
      <path id="Path_14" data-name="Path 14" d="M126.6,21.317a2.444,2.444,0,1,1,4.882,0Zm8.818,2.3a6.969,6.969,0,0,0,.033-.839c.067-4.329-2.8-6.7-6.447-6.7a6.7,6.7,0,1,0,6.074,10.144l-3.244-1.5a2.731,2.731,0,0,1-2.5,1.519,2.607,2.607,0,0,1-2.717-2.491v-.133Zm9.031,2.324a3.083,3.083,0,0,1-2.931-3.217,2.943,2.943,0,1,1,5.861,0A3.078,3.078,0,0,1,144.445,25.946Zm6.873,3.064-.007-20.98h-3.983v9.924a5.688,5.688,0,0,0-4.016-1.685,6.28,6.28,0,0,0-5.974,6.54,6.28,6.28,0,0,0,5.974,6.54,5.7,5.7,0,0,0,4.036-1.732V29.01h3.97Zm13.547-3.477h-3.823v-13.1h2.664a2.222,2.222,0,0,1,2.118,2.245,2.118,2.118,0,0,1-2.118,2.118h-1.385v3.6h2.544a2.572,2.572,0,0,1,0,5.142m3.343-7.42a5.315,5.315,0,0,0,1.765-3.89,5.235,5.235,0,0,0-1.445-3.6C167.577,9.582,165.892,9,163.614,9H156.78V29.01h8.825a5.986,5.986,0,0,0,6.1-5.741c0-2.278-.8-3.9-3.5-5.155" transform="translate(-108.24 -8.03)" fill="#344d4c" fill-rule="evenodd"/>
    </g>
  </g>
</svg>
