<svg xmlns="http://www.w3.org/2000/svg" width="170.373" height="47.198" viewBox="0 0 170.373 47.198">
  <g id="Group_12" data-name="Group 12" transform="translate(-206.697 -3287.12)">
    <g id="Logotype" transform="translate(206.697 3287.12)">
      <g id="Group_5502" data-name="Group 5502">
        <path id="Path_9" data-name="Path 9" d="M27.2,16.423l-8.883,5.293L15.7,15.53a1.643,1.643,0,0,0-.506-.657,1.664,1.664,0,0,0-2.343.27L3.55,26.992l7.6-24.272Z" transform="translate(-1.696 -2.72)" fill="#344d4c"/>
        <path id="Path_10" data-name="Path 10" d="M32.465,15.53l-2.613,6.186L20.97,16.423,37.016,2.72l7.619,24.322-9.321-11.9a1.643,1.643,0,0,0-.657-.506A1.692,1.692,0,0,0,32.465,15.53Z" transform="translate(10.246 -2.72)" fill="#344d4c"/>
        <path id="Path_11" data-name="Path 11" d="M23.524,12.14,33.94,18.36,23.524,43,13.09,18.36Z" transform="translate(4.844 3.943)" fill="#344d4c" opacity="0.5"/>
        <path id="Path_12" data-name="Path 12" d="M46.188,27.978,21.36,42.912,34.17,12.64Z" transform="translate(10.514 4.286)" fill="#344d4c"/>
        <path id="Path_13" data-name="Path 13" d="M27.295,42.919,2.45,27.968,14.485,12.63Z" transform="translate(-2.45 4.279)" fill="#344d4c"/>
      </g>
    </g>
    <g id="Layer_2" data-name="Layer 2" transform="translate(277.479 3299.757)">
      <g id="Group_8" data-name="Group 8" transform="translate(0)">
        <path id="Path_3" data-name="Path 3" d="M51.24,27.772c-4.04,0-7.2-2.005-7.331-5.8h4.868a2.153,2.153,0,0,0,2.327,2.14c1.339,0,2.195-.669,2.195-1.765,0-3.477-9.39-1.605-9.337-8.267,0-3.558,2.916-5.537,6.849-5.537,4.093,0,6.848,2.032,7.035,5.617H52.9A2.034,2.034,0,0,0,50.731,12.2,1.665,1.665,0,0,0,48.8,13.915c0,3.265,9.283,1.792,9.283,8.08C58.088,25.151,55.627,27.772,51.24,27.772Z" transform="translate(-43.909 -7.788)" fill="#344d4c"/>
        <path id="Path_4" data-name="Path 4" d="M57.879,7.921h4.574V18.863l4.522-6.072h5.644l-6.206,7.491,6.259,7.438H67l-4.547-6.261V27.72H57.879Z" transform="translate(-40.893 -7.921)" fill="#344d4c"/>
        <path id="Path_5" data-name="Path 5" d="M82.073,11.926h4.951L77.661,33.945H72.737l3.424-7.6L70.088,11.926H75.2l3.451,9.337Z" transform="translate(-38.257 -7.056)" fill="#344d4c"/>
        <path id="Path_6" data-name="Path 6" d="M94.554,12.577c3.691,0,6.582,2.942,6.582,7.65s-2.916,7.705-6.582,7.705a5.244,5.244,0,0,1-4.6-2.3V27.72H85.378V7.921h4.575V14.9A5.268,5.268,0,0,1,94.554,12.577ZM93.19,16.562c-1.712,0-3.265,1.311-3.265,3.693s1.553,3.691,3.265,3.691c1.74,0,3.29-1.338,3.29-3.719A3.327,3.327,0,0,0,93.19,16.562Z" transform="translate(-34.956 -7.921)" fill="#344d4c"/>
        <path id="Path_7" data-name="Path 7" d="M107.272,27.106a7.321,7.321,0,0,1-7.7-7.677,7.758,7.758,0,0,1,15.516,0C115.084,24.163,111.66,27.106,107.272,27.106Zm0-3.959c1.632,0,3.158-1.2,3.158-3.718,0-2.541-1.5-3.719-3.1-3.719-1.658,0-3.1,1.178-3.1,3.719C104.223,21.943,105.614,23.147,107.272,23.147Z" transform="translate(-31.892 -7.094)" fill="#344d4c"/>
        <path id="Path_8" data-name="Path 8" d="M120.566,22.707l-2.406,4.147h-4.95l4.923-7.625-5.057-7.3h5.137l2.862,4.119,2.408-4.119h4.95l-5,7.518,5.137,7.411h-5.137Z" transform="translate(-28.975 -7.056)" fill="#344d4c"/>
      </g>
    </g>
  </g>
</svg>
