<svg xmlns="http://www.w3.org/2000/svg" width="173.37" height="39.984" viewBox="0 0 173.37 39.984">
  <g id="f3a66e502a9b4ca" style="mix-blend-mode: luminosity;isolation: isolate">
    <path id="Path_47" data-name="Path 47" d="M120,88.617h3.8v-1.04H121.16V81.5H120Z" transform="translate(-72.019 -48.913)" fill="#555655"/>
    <path id="Path_48" data-name="Path 48" d="M153.017,84.819a2.6,2.6,0,0,1-.8,1.879,2.564,2.564,0,0,1-1.879.76,2.732,2.732,0,0,1-1.879-.76,2.564,2.564,0,0,1-.76-1.879,2.661,2.661,0,0,1,.76-1.879,2.564,2.564,0,0,1,1.879-.76,2.732,2.732,0,0,1,1.879.76,2.537,2.537,0,0,1,.8,1.879m1.24,0a3.693,3.693,0,0,0-1.12-2.639,3.866,3.866,0,0,0-2.759-1.08,3.933,3.933,0,0,0-2.759,1.08,3.539,3.539,0,0,0-1.12,2.639,3.693,3.693,0,0,0,1.12,2.639,3.866,3.866,0,0,0,2.759,1.08,4.118,4.118,0,0,0,2.759-1.08,3.626,3.626,0,0,0,1.12-2.639" transform="translate(-87.924 -48.673)" fill="#555655"/>
    <path id="Path_49" data-name="Path 49" d="M153.017,84.819a2.6,2.6,0,0,1-.8,1.879,2.564,2.564,0,0,1-1.879.76,2.732,2.732,0,0,1-1.879-.76,2.564,2.564,0,0,1-.76-1.879,2.661,2.661,0,0,1,.76-1.879,2.564,2.564,0,0,1,1.879-.76,2.732,2.732,0,0,1,1.879.76,2.537,2.537,0,0,1,.8,1.879m1.24,0a3.693,3.693,0,0,0-1.12-2.639,3.866,3.866,0,0,0-2.759-1.08,3.933,3.933,0,0,0-2.759,1.08,3.539,3.539,0,0,0-1.12,2.639,3.693,3.693,0,0,0,1.12,2.639,3.866,3.866,0,0,0,2.759,1.08,4.118,4.118,0,0,0,2.759-1.08,3.626,3.626,0,0,0,1.12-2.639" transform="translate(-87.924 -48.673)" fill="#555655"/>
    <path id="Path_50" data-name="Path 50" d="M185.5,88.2h1.08V83.239a4.492,4.492,0,0,0,.72.8l4.678,4.438v-7.4H190.9v4.958a7.965,7.965,0,0,0-.8-.88L185.5,80.8Z" transform="translate(-111.33 -48.493)" fill="#555655"/>
    <path id="Path_51" data-name="Path 51" d="M185.5,88.2h1.08V83.239a4.492,4.492,0,0,0,.72.8l4.678,4.438v-7.4H190.9v4.958a7.965,7.965,0,0,0-.8-.88L185.5,80.8Z" transform="translate(-111.33 -48.493)" fill="#555655"/>
    <path id="Path_52" data-name="Path 52" d="M223.26,87.518V82.48h.44a3.775,3.775,0,0,1,2.519.48,2.486,2.486,0,0,1,.84,2.039,2.434,2.434,0,0,1-.84,2.039,3.775,3.775,0,0,1-2.519.48Zm-1.16,1.04h1.6c1.319,0,2.359.04,3.279-.68A3.4,3.4,0,0,0,228.258,85a3.482,3.482,0,0,0-1.279-2.919c-.88-.68-1.919-.68-3.279-.68h-1.6Z" transform="translate(-133.296 -48.853)" fill="#555655"/>
    <path id="Path_53" data-name="Path 53" d="M223.26,87.518V82.48h.44a3.775,3.775,0,0,1,2.519.48,2.486,2.486,0,0,1,.84,2.039,2.434,2.434,0,0,1-.84,2.039,3.775,3.775,0,0,1-2.519.48Zm-1.16,1.04h1.6c1.319,0,2.359.04,3.279-.68A3.4,3.4,0,0,0,228.258,85a3.482,3.482,0,0,0-1.279-2.919c-.88-.68-1.919-.68-3.279-.68h-1.6Z" transform="translate(-133.296 -48.853)" fill="#555655"/>
    <path id="Path_54" data-name="Path 54" d="M262.817,84.819a2.6,2.6,0,0,1-.8,1.879,2.564,2.564,0,0,1-1.879.76,2.732,2.732,0,0,1-1.879-.76,2.564,2.564,0,0,1-.76-1.879,2.661,2.661,0,0,1,.76-1.879,2.564,2.564,0,0,1,1.879-.76,2.733,2.733,0,0,1,1.879.76,2.537,2.537,0,0,1,.8,1.879m1.239,0a3.693,3.693,0,0,0-1.12-2.639,3.866,3.866,0,0,0-2.759-1.08,3.933,3.933,0,0,0-2.759,1.08,3.538,3.538,0,0,0-1.12,2.639,3.693,3.693,0,0,0,1.12,2.639,3.866,3.866,0,0,0,2.759,1.08,4.118,4.118,0,0,0,2.759-1.08,3.626,3.626,0,0,0,1.12-2.639" transform="translate(-153.821 -48.673)" fill="#555655"/>
    <path id="Path_55" data-name="Path 55" d="M262.817,84.819a2.6,2.6,0,0,1-.8,1.879,2.564,2.564,0,0,1-1.879.76,2.732,2.732,0,0,1-1.879-.76,2.564,2.564,0,0,1-.76-1.879,2.661,2.661,0,0,1,.76-1.879,2.564,2.564,0,0,1,1.879-.76,2.733,2.733,0,0,1,1.879.76,2.537,2.537,0,0,1,.8,1.879m1.239,0a3.693,3.693,0,0,0-1.12-2.639,3.866,3.866,0,0,0-2.759-1.08,3.933,3.933,0,0,0-2.759,1.08,3.538,3.538,0,0,0-1.12,2.639,3.693,3.693,0,0,0,1.12,2.639,3.866,3.866,0,0,0,2.759,1.08,4.118,4.118,0,0,0,2.759-1.08,3.626,3.626,0,0,0,1.12-2.639" transform="translate(-153.821 -48.673)" fill="#555655"/>
    <path id="Path_56" data-name="Path 56" d="M295.3,88.2h1.08V83.239a4.493,4.493,0,0,0,.72.8l4.678,4.438v-7.4H300.7v4.958a7.965,7.965,0,0,0-.8-.88L295.3,80.8Z" transform="translate(-177.228 -48.493)" fill="#555655"/>
    <path id="Path_57" data-name="Path 57" d="M295.3,88.2h1.08V83.239a4.493,4.493,0,0,0,.72.8l4.678,4.438v-7.4H300.7v4.958a7.965,7.965,0,0,0-.8-.88L295.3,80.8Z" transform="translate(-177.228 -48.493)" fill="#555655"/>
    <path id="Path_58" data-name="Path 58" d="M5.2,4.059H8.437V1.7H0V4.059H3.239V18.813H5.2Z" transform="translate(0 -1.02)" fill="#555655"/>
    <path id="Path_59" data-name="Path 59" d="M5.2,4.059H8.437V1.7H0V4.059H3.239V18.813H5.2Z" transform="translate(0 -1.02)" fill="#555655"/>
    <path id="Path_60" data-name="Path 60" d="M52.3,18.813h6.8V16.294H54.259V10.776H59.1V8.337H54.259V4.059H59.1V1.7H52.3Z" transform="translate(-31.388 -1.02)" fill="#555655"/>
    <path id="Path_61" data-name="Path 61" d="M52.3,18.813h6.8V16.294H54.259V10.776H59.1V8.337H54.259V4.059H59.1V1.7H52.3Z" transform="translate(-31.388 -1.02)" fill="#555655"/>
    <path id="Path_62" data-name="Path 62" d="M104.259,16.294V4.179h.72c1.839,0,3.159-.08,4.2,1.12a7.59,7.59,0,0,1,1.4,4.918,7.514,7.514,0,0,1-1.4,4.918c-1.04,1.279-2.4,1.12-4.2,1.12h-.72ZM102.3,18.813h2.679c2.239,0,4,.08,5.518-1.6,1.4-1.519,2.159-3.878,2.159-6.957S111.9,4.819,110.5,3.3c-1.479-1.6-3.239-1.6-5.518-1.6H102.3Z" transform="translate(-61.396 -1.02)" fill="#555655"/>
    <path id="Path_63" data-name="Path 63" d="M104.259,16.294V4.179h.72c1.839,0,3.159-.08,4.2,1.12a7.59,7.59,0,0,1,1.4,4.918,7.514,7.514,0,0,1-1.4,4.918c-1.04,1.279-2.4,1.12-4.2,1.12h-.72ZM102.3,18.813h2.679c2.239,0,4,.08,5.518-1.6,1.4-1.519,2.159-3.878,2.159-6.957S111.9,4.819,110.5,3.3c-1.479-1.6-3.239-1.6-5.518-1.6H102.3Z" transform="translate(-61.396 -1.02)" fill="#555655"/>
    <path id="Path_64" data-name="Path 64" d="M203.359,8.957V4.079h.76c1.759,0,2.6.4,2.6,2.519,0,1.8-.8,2.359-2.6,2.359Zm0,7.6V11.076h.68a3.579,3.579,0,0,1,2.2.36,2.819,2.819,0,0,1,.92,2.359,2.945,2.945,0,0,1-.76,2.159,3.511,3.511,0,0,1-2.359.52h-.68ZM201.4,18.873h3.079c1.719,0,2.879-.08,3.719-1.279a6.449,6.449,0,0,0,1-3.559c0-2.279-.88-3.918-2.279-4.2,1.16-.48,1.759-1.759,1.759-3.559a5.129,5.129,0,0,0-1.2-3.6c-.76-.8-1.719-.88-3-.88H201.4Z" transform="translate(-120.872 -1.08)" fill="#555655"/>
    <path id="Path_65" data-name="Path 65" d="M203.359,8.957V4.079h.76c1.759,0,2.6.4,2.6,2.519,0,1.8-.8,2.359-2.6,2.359Zm0,7.6V11.076h.68a3.579,3.579,0,0,1,2.2.36,2.819,2.819,0,0,1,.92,2.359,2.945,2.945,0,0,1-.76,2.159,3.511,3.511,0,0,1-2.359.52h-.68ZM201.4,18.873h3.079c1.719,0,2.879-.08,3.719-1.279a6.449,6.449,0,0,0,1-3.559c0-2.279-.88-3.918-2.279-4.2,1.16-.48,1.759-1.759,1.759-3.559a5.129,5.129,0,0,0-1.2-3.6c-.76-.8-1.719-.88-3-.88H201.4Z" transform="translate(-120.872 -1.08)" fill="#555655"/>
    <path id="Path_66" data-name="Path 66" d="M253.338,11.036l1.24-3.918c.12-.44.28-1.08.44-1.919.16.88.32,1.479.44,1.919l1.24,3.918h-3.359Zm5.478,6.757h2.119L255.018,0,249.1,17.793h2.079l1.4-4.4h4.878Z" transform="translate(-149.5)" fill="#555655"/>
    <path id="Path_67" data-name="Path 67" d="M253.338,11.036l1.24-3.918c.12-.44.28-1.08.44-1.919.16.88.32,1.479.44,1.919l1.24,3.918h-3.359Zm5.478,6.757h2.119L255.018,0,249.1,17.793h2.079l1.4-4.4h4.878Z" transform="translate(-149.5)" fill="#555655"/>
    <path id="Path_68" data-name="Path 68" d="M308.8,18.813h2V10.057l4.8,8.756h2.559l-5.4-9.516L317.6,1.7h-2.439L310.8,8.777V1.7h-2Z" transform="translate(-185.33 -1.02)" fill="#555655"/>
    <path id="Path_69" data-name="Path 69" d="M308.8,18.813h2V10.057l4.8,8.756h2.559l-5.4-9.516L317.6,1.7h-2.439L310.8,8.777V1.7h-2Z" transform="translate(-185.33 -1.02)" fill="#555655"/>
    <path id="Path_70" data-name="Path 70" d="M362.6,18.813h6.8V16.294h-4.838V10.776H369.4V8.337h-4.838V4.059H369.4V1.7h-6.8Z" transform="translate(-217.618 -1.02)" fill="#555655"/>
    <path id="Path_71" data-name="Path 71" d="M362.6,18.813h6.8V16.294h-4.838V10.776H369.4V8.337h-4.838V4.059H369.4V1.7h-6.8Z" transform="translate(-217.618 -1.02)" fill="#555655"/>
    <path id="Path_72" data-name="Path 72" d="M414.659,8.917V4.039h.36c1.759,0,2.6.44,2.6,2.559,0,2.039-.88,2.359-2.6,2.359h-.36Zm-.12,2.159h.24l4.038,7.677h2.239l-4.2-7.8c1.839-.32,2.8-1.879,2.8-4.638A5.7,5.7,0,0,0,418.5,2.56a3.794,3.794,0,0,0-3.039-.96H412.7V18.713h1.879V11.076Z" transform="translate(-247.687 -0.96)" fill="#555655"/>
    <path id="Path_73" data-name="Path 73" d="M414.659,8.917V4.039h.36c1.759,0,2.6.44,2.6,2.559,0,2.039-.88,2.359-2.6,2.359h-.36Zm-.12,2.159h.24l4.038,7.677h2.239l-4.2-7.8c1.839-.32,2.8-1.879,2.8-4.638A5.7,5.7,0,0,0,418.5,2.56a3.794,3.794,0,0,0-3.039-.96H412.7V18.713h1.879V11.076Z" transform="translate(-247.687 -0.96)" fill="#555655"/>
  </g>
</svg>
